<?xml version="1.0"?>
<svg xmlns="http://www.w3.org/2000/svg" viewBox="0 0 16 16">
    <path style="line-height:normal;text-indent:0;text-align:start;text-decoration-line:none;text-decoration-style:solid;text-decoration-color:#000;text-transform:none;block-progression:tb;isolation:auto;mix-blend-mode:normal" d="M 7 0 L 7 2.0253906 C 4.3674121 2.2646453 2.2646453 4.3674121 2.0253906 7 L 0 7 L 0 8 L 2.0253906 8 C 2.2646453 10.632588 4.3674121 12.735355 7 12.974609 L 7 15 L 8 15 L 8 12.974609 C 10.632588 12.735355 12.735355 10.632588 12.974609 8 L 15 8 L 15 7 L 12.974609 7 C 12.735355 4.3674121 10.632588 2.2646453 8 2.0253906 L 8 0 L 7 0 z M 7 3.0507812 L 7 4 L 8 4 L 8 3.0507812 C 10.084817 3.2829831 11.717017 4.9151825 11.949219 7 L 11 7 L 11 8 L 11.949219 8 C 11.717017 10.084817 10.084817 11.717017 8 11.949219 L 8 11 L 7 11 L 7 11.949219 C 4.9151825 11.717017 3.2829831 10.084817 3.0507812 8 L 4 8 L 4 7 L 3.0507812 7 C 3.2829831 4.9151825 4.9151825 3.2829831 7 3.0507812 z" font-weight="400" font-family="sans-serif" white-space="normal" overflow="visible"/>
</svg>
