<?xml version="1.0" encoding="iso-8859-1"?>
<!-- Generator: Adobe Illustrator 19.1.1, SVG Export Plug-In . SVG Version: 6.00 Build 0)  -->
<svg xmlns="http://www.w3.org/2000/svg" xmlns:xlink="http://www.w3.org/1999/xlink" version="1.1" id="Layer_1" x="0px" y="0px" viewBox="0 0 64 64" style="enable-background:new 0 0 64 64;" xml:space="preserve">
<linearGradient id="SVGID_1__52134" gradientUnits="userSpaceOnUse" x1="32" y1="7.0011" x2="32" y2="56.9985" spreadMethod="reflect">
	<stop offset="0" style="stop-color:#1A6DFF"/>
	<stop offset="1" style="stop-color:#C822FF"/>
</linearGradient>
<path style="fill:url(#SVGID_1__52134);" d="M49.757,56.999c-0.768,0-1.536-0.292-2.121-0.877L32,40.485L16.364,56.121  c-1.17,1.169-3.073,1.169-4.243,0l-4.243-4.243c-1.17-1.17-1.17-3.073,0-4.243L23.515,32L7.879,16.364  c-1.17-1.17-1.17-3.073,0-4.243l4.243-4.243c1.169-1.17,3.072-1.171,4.243,0L32,23.515L47.636,7.879c1.17-1.171,3.073-1.17,4.243,0  l4.243,4.243c1.17,1.17,1.17,3.073,0,4.243L40.485,32l15.636,15.636c1.17,1.17,1.17,3.073,0,4.243l-4.243,4.243  C51.293,56.706,50.525,56.999,49.757,56.999z M32,37.657l17.05,17.05c0.39,0.39,1.025,0.389,1.415,0l4.243-4.243  c0.39-0.39,0.39-1.024,0-1.415L37.657,32l17.05-17.05c0.39-0.39,0.39-1.024,0-1.415l-4.243-4.243c-0.39-0.39-1.025-0.391-1.415,0  L32,26.343L14.95,9.293c-0.39-0.39-1.025-0.389-1.415,0l-4.243,4.243c-0.39,0.39-0.39,1.024,0,1.415L26.343,32L9.293,49.05  c-0.39,0.39-0.39,1.024,0,1.415l4.243,4.243c0.389,0.389,1.024,0.39,1.415,0L32,37.657z"/>
<linearGradient id="SVGID_2__52134" gradientUnits="userSpaceOnUse" x1="32" y1="11.9395" x2="32" y2="52.0605" spreadMethod="reflect">
	<stop offset="0" style="stop-color:#6DC7FF"/>
	<stop offset="1" style="stop-color:#E6ABFF"/>
</linearGradient>
<polygon style="fill:url(#SVGID_2__52134);" points="52.061,14.061 49.939,11.939 32,29.879 14.061,11.939 11.939,14.061 29.879,32   11.939,49.939 14.061,52.061 32,34.121 49.939,52.061 52.061,49.939 34.121,32 "/>
</svg>
