<svg height="480pt" viewBox="0 0 480 480" width="480pt" xmlns="http://www.w3.org/2000/svg" xmlns:xlink="http://www.w3.org/1999/xlink"><linearGradient id="linear0" gradientUnits="userSpaceOnUse" x1="240" x2="240" y1="480" y2="0"><stop offset="0" stop-color="#12c2e9"/><stop offset=".056" stop-color="#19bfe9"/><stop offset=".137" stop-color="#2db6ea"/><stop offset=".235" stop-color="#4da7ea"/><stop offset=".344" stop-color="#7993eb"/><stop offset=".462" stop-color="#b279ed"/><stop offset=".497" stop-color="#c471ed"/><stop offset="1" stop-color="#f64f59"/></linearGradient><path d="m240 0c-132.546875 0-240 107.453125-240 240s107.453125 240 240 240 240-107.453125 240-240c-.148438-132.484375-107.515625-239.851562-240-240zm0 464c-123.710938 0-224-100.289062-224-224s100.289062-224 224-224 224 100.289062 224 224c-.140625 123.652344-100.347656 223.859375-224 224zm0-304c-69.488281 0-124.121094 72.144531-126.398438 75.199219-2.136718 2.84375-2.136718 6.757812 0 9.601562 2.285157 3.070313 56.917969 75.199219 126.398438 75.199219s124.121094-72.144531 126.398438-75.199219c2.136718-2.84375 2.136718-6.757812 0-9.601562-2.277344-3.054688-56.910157-75.199219-126.398438-75.199219zm0 144c-51.769531 0-96.609375-48.390625-109.71875-64 13.109375-15.609375 57.949219-64 109.71875-64s96.609375 48.390625 109.71875 64c-13.109375 15.609375-57.949219 64-109.71875 64zm0-104c-22.089844 0-40 17.910156-40 40s17.910156 40 40 40 40-17.910156 40-40c-.027344-22.082031-17.917969-39.972656-40-40zm0 64c-13.253906 0-24-10.746094-24-24s10.746094-24 24-24 24 10.746094 24 24-10.746094 24-24 24zm0 0" fill="url(#linear0)"/></svg>