<?xml version="1.0" encoding="iso-8859-1"?>
<!-- Generator: Adobe Illustrator 20.1.0, SVG Export Plug-In . SVG Version: 6.00 Build 0)  -->
<svg xmlns="http://www.w3.org/2000/svg" xmlns:xlink="http://www.w3.org/1999/xlink" version="1.1" id="&#1057;&#1083;&#1086;&#1081;_1" x="0px" y="0px" viewBox="0 0 64 64" style="enable-background:new 0 0 64 64;" xml:space="preserve">
<linearGradient id="SVGID_1__48147" gradientUnits="userSpaceOnUse" x1="32" y1="26.25" x2="32" y2="37.8777" spreadMethod="reflect">
	<stop offset="0" style="stop-color:#6DC7FF"/>
	<stop offset="1" style="stop-color:#E6ABFF"/>
</linearGradient>
<circle style="fill:url(#SVGID_1__48147);" cx="32" cy="32" r="5"/>
<linearGradient id="SVGID_2__48147" gradientUnits="userSpaceOnUse" x1="32" y1="5.125" x2="32" y2="59.2571" spreadMethod="reflect">
	<stop offset="0" style="stop-color:#1A6DFF"/>
	<stop offset="1" style="stop-color:#C822FF"/>
</linearGradient>
<path style="fill:url(#SVGID_2__48147);" d="M55,28h-0.367C52.965,18.518,45.481,11.034,36,9.367V9c0-1.654-1.346-3-3-3h-2  c-1.654,0-3,1.346-3,3v0.367C18.519,11.035,11.035,18.519,9.367,28H9c-1.654,0-3,1.346-3,3v2c0,1.654,1.346,3,3,3h0.367  C11.035,45.481,18.519,52.965,28,54.633V55c0,1.654,1.346,3,3,3h2c1.654,0,3-1.346,3-3v-0.367  C45.481,52.966,52.965,45.482,54.633,36H55c1.654,0,3-1.346,3-3v-2C58,29.346,56.654,28,55,28z M52.603,28h-2.04  C49,20.705,43.295,15,36,13.437v-2.039C44.377,13.016,50.984,19.623,52.603,28z M48.531,35.953c-0.66,2.777-1.995,5.282-3.825,7.34  l-1.999-1.999l-1.414,1.414l1.999,1.999c-2.058,1.829-4.563,3.165-7.34,3.825C35.726,47.1,34.494,46,33,46h-2  c-1.494,0-2.726,1.1-2.953,2.531c-2.777-0.66-5.282-1.995-7.34-3.825l2-2l-1.414-1.414l-2,2c-1.83-2.058-3.165-4.563-3.825-7.34  C16.9,35.726,18,34.494,18,33v-2c0-1.494-1.1-2.726-2.531-2.953c0.66-2.777,1.995-5.282,3.825-7.34l2,2l1.414-1.414l-2-2  c2.058-1.829,4.563-3.165,7.34-3.825C28.274,16.9,29.506,18,31,18h2c1.494,0,2.726-1.101,2.953-2.531  c2.777,0.66,5.282,1.995,7.34,3.825l-2,2l1.414,1.414l2-2c1.829,2.058,3.165,4.563,3.825,7.34C47.1,28.274,46,29.506,46,31v2  C46,34.494,47.1,35.726,48.531,35.953z M30,9c0-0.552,0.449-1,1-1h2c0.551,0,1,0.448,1,1v6c0,0.552-0.449,1-1,1h-2  c-0.551,0-1-0.448-1-1V9z M28,11.398v2.039C20.705,15,15,20.705,13.437,28h-2.04C13.016,19.623,19.623,13.016,28,11.398z M8,33v-2  c0-0.552,0.449-1,1-1h6c0.551,0,1,0.448,1,1v2c0,0.552-0.449,1-1,1H9C8.449,34,8,33.552,8,33z M11.397,36h2.04  C15,43.295,20.705,49,28,50.563v2.039C19.623,50.984,13.016,44.377,11.397,36z M34,55c0,0.552-0.449,1-1,1h-2c-0.551,0-1-0.448-1-1  v-6c0-0.552,0.449-1,1-1h2c0.551,0,1,0.448,1,1V55z M36,52.602v-2.039C43.295,49,49,43.295,50.563,36h2.04  C50.984,44.377,44.377,50.984,36,52.602z M56,33c0,0.552-0.449,1-1,1h-6c-0.551,0-1-0.448-1-1v-2c0-0.552,0.449-1,1-1h6  c0.551,0,1,0.448,1,1V33z"/>
</svg>
