<svg xmlns="http://www.w3.org/2000/svg" viewBox="0 0 16 16">
    <path style="line-height:normal;text-indent:0;text-align:start;text-decoration-line:none;text-decoration-style:solid;text-decoration-color:#000;text-transform:none;block-progression:tb;isolation:auto;mix-blend-mode:normal" d="M 7 0 L 7 2.0253906 C 4.3674121 2.2646453 2.2646453 4.3674121 2.0253906 7 L 0 7 L 0 8 L 2.0253906 8 C 2.2646453 10.632588 4.3674121 12.735355 7 12.974609 L 7 15 L 8 15 L 8 12.974609 C 10.632588 12.735355 12.735355 10.632588 12.974609 8 L 15 8 L 15 7 L 12.974609 7 C 12.735355 4.3674121 10.632588 2.2646453 8 2.0253906 L 8 0 L 7 0 z M 7.5 3 C 9.9912037 3 12 5.0087963 12 7.5 C 12 9.9912037 9.9912037 12 7.5 12 C 5.0087963 12 3 9.9912037 3 7.5 C 3 5.0087963 5.0087963 3 7.5 3 z M 7.5 6 A 1.5 1.5 0 0 0 6 7.5 A 1.5 1.5 0 0 0 7.5 9 A 1.5 1.5 0 0 0 9 7.5 A 1.5 1.5 0 0 0 7.5 6 z" color="#000" font-weight="400" font-family="sans-serif" white-space="normal" overflow="visible"/>
</svg>
