<?xml version="1.0" encoding="iso-8859-1"?>
<!-- Generator: Adobe Illustrator 20.1.0, SVG Export Plug-In . SVG Version: 6.00 Build 0)  -->
<svg xmlns="http://www.w3.org/2000/svg" xmlns:xlink="http://www.w3.org/1999/xlink" version="1.1" id="&#1057;&#1083;&#1086;&#1081;_1" x="0px" y="0px" viewBox="0 0 64 64" style="enable-background:new 0 0 64 64;" xml:space="preserve">
<linearGradient id="SVGID_1__48182" gradientUnits="userSpaceOnUse" x1="32.6717" y1="6.9778" x2="31.3384" y2="56.6444" spreadMethod="reflect">
	<stop offset="0" style="stop-color:#1A6DFF"/>
	<stop offset="1" style="stop-color:#C822FF"/>
</linearGradient>
<path style="fill:url(#SVGID_1__48182);" d="M51,8H13c-2.757,0-5,2.243-5,5v38c0,2.757,2.243,5,5,5h38c2.757,0,5-2.243,5-5V13  C56,10.243,53.757,8,51,8z M54,51c0,1.654-1.346,3-3,3H13c-1.654,0-3-1.346-3-3V13c0-1.654,1.346-3,3-3h38c1.654,0,3,1.346,3,3V51z"/>
<linearGradient id="SVGID_2__48182" gradientUnits="userSpaceOnUse" x1="32.6717" y1="6.9778" x2="31.3384" y2="56.6444" spreadMethod="reflect">
	<stop offset="0" style="stop-color:#1A6DFF"/>
	<stop offset="1" style="stop-color:#C822FF"/>
</linearGradient>
<path style="fill:url(#SVGID_2__48182);" d="M45,16H19c-1.654,0-3,1.346-3,3v26c0,1.654,1.346,3,3,3h26c1.654,0,3-1.346,3-3V19  C48,17.346,46.654,16,45,16z M19,18h26c0.551,0,1,0.448,1,1v5H18v-5C18,18.448,18.449,18,19,18z M45,46H19c-0.551,0-1-0.448-1-1V26  h28v19C46,45.552,45.551,46,45,46z"/>
<linearGradient id="SVGID_3__48182" gradientUnits="userSpaceOnUse" x1="22.3839" y1="6.7016" x2="21.0505" y2="56.3682" spreadMethod="reflect">
	<stop offset="0" style="stop-color:#1A6DFF"/>
	<stop offset="1" style="stop-color:#C822FF"/>
</linearGradient>
<rect x="20" y="20" style="fill:url(#SVGID_3__48182);" width="4" height="2"/>
<linearGradient id="SVGID_4__48182" gradientUnits="userSpaceOnUse" x1="28.3795" y1="6.8625" x2="27.0462" y2="56.5292" spreadMethod="reflect">
	<stop offset="0" style="stop-color:#1A6DFF"/>
	<stop offset="1" style="stop-color:#C822FF"/>
</linearGradient>
<rect x="26" y="20" style="fill:url(#SVGID_4__48182);" width="4" height="2"/>
<linearGradient id="SVGID_5__48182" gradientUnits="userSpaceOnUse" x1="41" y1="27.6667" x2="41" y2="34.035" spreadMethod="reflect">
	<stop offset="0" style="stop-color:#6DC7FF"/>
	<stop offset="1" style="stop-color:#E6ABFF"/>
</linearGradient>
<path style="fill:url(#SVGID_5__48182);" d="M44,34v-5c0-0.552-0.448-1-1-1h-5L44,34z"/>
</svg>
