<?xml version="1.0" encoding="iso-8859-1"?>
<!-- Generator: Adobe Illustrator 20.1.0, SVG Export Plug-In . SVG Version: 6.00 Build 0)  -->
<svg xmlns="http://www.w3.org/2000/svg" xmlns:xlink="http://www.w3.org/1999/xlink" version="1.1" id="&#1057;&#1083;&#1086;&#1081;_1" x="0px" y="0px" viewBox="0 0 64 64" style="enable-background:new 0 0 64 64;" xml:space="preserve">
<linearGradient id="SVGID_1__46055" gradientUnits="userSpaceOnUse" x1="32" y1="7.375" x2="32" y2="56.2015" spreadMethod="reflect">
	<stop offset="0" style="stop-color:#1A6DFF"/>
	<stop offset="1" style="stop-color:#C822FF"/>
</linearGradient>
<path style="fill:url(#SVGID_1__46055);" d="M55,11H40.618l-0.449-0.897C39.83,9.423,39.147,9,38.387,9H25.613  c-0.761,0-1.443,0.423-1.782,1.102L23.382,11H9c-1.654,0-3,1.346-3,3v34c0,1.654,1.346,3,3,3h1v1c0,1.654,1.346,3,3,3h8  c1.654,0,3-1.346,3-3v-1h16v1c0,1.654,1.346,3,3,3h8c1.654,0,3-1.346,3-3v-1h1c1.654,0,3-1.346,3-3V14C58,12.346,56.654,11,55,11z   M22,52c0,0.552-0.448,1-1,1h-8c-0.552,0-1-0.448-1-1v-1h10V52z M52,52c0,0.552-0.448,1-1,1h-8c-0.552,0-1-0.448-1-1v-1h10V52z   M56,48c0,0.552-0.448,1-1,1H43.001H40H9c-0.552,0-1-0.448-1-1V14c0-0.552,0.448-1,1-1h46c0.552,0,1,0.448,1,1V48z"/>
<linearGradient id="SVGID_2__46055" gradientUnits="userSpaceOnUse" x1="32" y1="7.375" x2="32" y2="56.2015" spreadMethod="reflect">
	<stop offset="0" style="stop-color:#1A6DFF"/>
	<stop offset="1" style="stop-color:#C822FF"/>
</linearGradient>
<path style="fill:url(#SVGID_2__46055);" d="M51.491,47.626L51.491,47.626C52.945,47.383,54,46.138,54,44.665v-27.33  c0-1.473-1.055-2.718-2.509-2.961l-7.995-1.333c-0.871-0.144-1.759,0.099-2.435,0.671c-0.409,0.347-0.696,0.796-0.872,1.288H12  c-1.103,0-2,0.897-2,2v11.005C10,29.105,10.897,30,12,30h8v2h-8c-1.103,0-2,0.897-2,2v11c0,1.103,0.897,2,2,2h28.19  c0.175,0.492,0.462,0.941,0.872,1.288C41.608,48.752,42.296,49,43.001,49c0.165,0,0.33-0.014,0.495-0.041L51.491,47.626z M22,29v-1  v-1.606l7.981,4.525c0.024,0.031,0.024,0.131,0.013,0.152L22,35.606V34v-1V29z M12,34h8v2.476c0,0.552,0.286,1.062,0.748,1.33  c0.223,0.13,0.468,0.195,0.713,0.195c0.24,0,0.48-0.063,0.7-0.187l8.819-5.003C31.609,32.455,32,31.761,32,31  s-0.391-1.455-1.02-1.812l-8.819-5.003c-0.444-0.251-0.973-0.247-1.413,0.009C20.286,24.463,20,24.973,20,25.524v2.477l-8,0.004V17  h28v28H12V34z M42.354,46.762C42.126,46.568,42,46.297,42,45.997V16.003c0-0.3,0.126-0.571,0.354-0.765  C42.539,15.082,42.763,15,42.998,15c0.056,0,0.112,0.004,0.17,0.014l7.994,1.333C51.647,16.428,52,16.844,52,17.335v27.33  c0,0.491-0.353,0.907-0.837,0.988l-7.995,1.333C42.869,47.039,42.583,46.955,42.354,46.762z"/>
<linearGradient id="SVGID_3__46055" gradientUnits="userSpaceOnUse" x1="47" y1="7.375" x2="47" y2="56.2015" spreadMethod="reflect">
	<stop offset="0" style="stop-color:#1A6DFF"/>
	<stop offset="1" style="stop-color:#C822FF"/>
</linearGradient>
<path style="fill:url(#SVGID_3__46055);" d="M47,23c-1.654,0-3,1.346-3,3v10c0,1.654,1.346,3,3,3s3-1.346,3-3V26  C50,24.346,48.654,23,47,23z M48,36c0,0.552-0.448,1-1,1s-1-0.448-1-1V26c0-0.552,0.448-1,1-1s1,0.448,1,1V36z"/>
<linearGradient id="SVGID_4__46055" gradientUnits="userSpaceOnUse" x1="47" y1="24.75" x2="47" y2="37.1307" spreadMethod="reflect">
	<stop offset="0" style="stop-color:#6DC7FF"/>
	<stop offset="1" style="stop-color:#E6ABFF"/>
</linearGradient>
<path style="fill:url(#SVGID_4__46055);" d="M47,37L47,37c-0.552,0-1-0.448-1-1V26c0-0.552,0.448-1,1-1l0,0c0.552,0,1,0.448,1,1v10  C48,36.552,47.552,37,47,37z"/>
<linearGradient id="SVGID_5__46055" gradientUnits="userSpaceOnUse" x1="17" y1="50" x2="17" y2="53.75" spreadMethod="reflect">
	<stop offset="0" style="stop-color:#6DC7FF"/>
	<stop offset="1" style="stop-color:#E6ABFF"/>
</linearGradient>
<path style="fill:url(#SVGID_5__46055);" d="M21,53h-8c-0.552,0-1-0.448-1-1v-1h10v1C22,52.552,21.552,53,21,53z"/>
<linearGradient id="SVGID_6__46055" gradientUnits="userSpaceOnUse" x1="47" y1="50" x2="47" y2="53.75" spreadMethod="reflect">
	<stop offset="0" style="stop-color:#6DC7FF"/>
	<stop offset="1" style="stop-color:#E6ABFF"/>
</linearGradient>
<path style="fill:url(#SVGID_6__46055);" d="M51,53h-8c-0.552,0-1-0.448-1-1v-1h10v1C52,52.552,51.552,53,51,53z"/>
</svg>
