<?xml version="1.0" encoding="iso-8859-1"?>
<!-- Generator: Adobe Illustrator 21.0.2, SVG Export Plug-In . SVG Version: 6.00 Build 0)  -->
<svg xmlns="http://www.w3.org/2000/svg" xmlns:xlink="http://www.w3.org/1999/xlink" version="1.1" id="Layer_1" x="0px" y="0px" viewBox="0 0 40 40" style="enable-background:new 0 0 40 40;" xml:space="preserve">
<g>
	<polygon style="fill:#DCD5F2;" points="2.5,37.5 2.5,2.5 29.485,2.5 37.5,10.515 37.5,37.5  "/>
	<g>
		<path style="fill:#8B75A1;" d="M29.279,3L37,10.722V37H3V3H29.279 M29.693,2H2v36h36V10.308L29.693,2L29.693,2z"/>
	</g>
</g>
<g>
	<rect x="6.5" y="19.5" style="fill:#FFFFFF;" width="27" height="18"/>
	<g>
		<path style="fill:#788B9C;" d="M33,20v17H7V20H33 M34,19H6v19h28V19L34,19z"/>
	</g>
</g>
<g>
	<path style="fill:#C6BAE6;" d="M27,3H9v9c0,1.105,0.895,2,2,2h16V3z"/>
</g>
<g>
	<path style="fill:#E1EBF2;" d="M14,13.5c-0.827,0-1.5-0.673-1.5-1.5V4c0-0.827,0.673-1.5,1.5-1.5h14c0.827,0,1.5,0.673,1.5,1.5v8   c0,0.827-0.673,1.5-1.5,1.5H14z"/>
	<g>
		<path style="fill:#66798F;" d="M28,3c0.551,0,1,0.449,1,1v8c0,0.551-0.449,1-1,1H14c-0.551,0-1-0.449-1-1V4c0-0.551,0.449-1,1-1    H28 M28,2H14c-1.105,0-2,0.895-2,2v8c0,1.105,0.895,2,2,2h14c1.105,0,2-0.895,2-2V4C30,2.895,29.105,2,28,2L28,2z"/>
	</g>
</g>
<rect x="10" y="24" style="fill:#C2E8FF;" width="20" height="1"/>
<rect x="10" y="28" style="fill:#C2E8FF;" width="20" height="1"/>
<rect x="10" y="32" style="fill:#C2E8FF;" width="20" height="1"/>
<rect x="23" y="5" style="fill:#788B9C;" width="3" height="6"/>
</svg>
