<?xml version="1.0" encoding="iso-8859-1"?>
<!-- Generator: Adobe Illustrator 20.1.0, SVG Export Plug-In . SVG Version: 6.00 Build 0)  -->
<svg xmlns="http://www.w3.org/2000/svg" xmlns:xlink="http://www.w3.org/1999/xlink" version="1.1" id="&#1057;&#1083;&#1086;&#1081;_1" x="0px" y="0px" viewBox="0 0 64 64" style="enable-background:new 0 0 64 64;" xml:space="preserve">
<linearGradient id="SVGID_1__49470" gradientUnits="userSpaceOnUse" x1="42.5" y1="28.3333" x2="42.5" y2="36.6933" spreadMethod="reflect">
	<stop offset="0" style="stop-color:#6DC7FF"/>
	<stop offset="1" style="stop-color:#E6ABFF"/>
</linearGradient>
<path style="fill:url(#SVGID_1__49470);" d="M47,35h-9c-0.552,0-1-0.448-1-1v-2c0-0.552,0.448-1,1-1h9c0.552,0,1,0.448,1,1v2  C48,34.552,47.552,35,47,35z"/>
<linearGradient id="SVGID_2__49470" gradientUnits="userSpaceOnUse" x1="21.5" y1="28.3333" x2="21.5" y2="36.6933" spreadMethod="reflect">
	<stop offset="0" style="stop-color:#6DC7FF"/>
	<stop offset="1" style="stop-color:#E6ABFF"/>
</linearGradient>
<path style="fill:url(#SVGID_2__49470);" d="M26,35h-9c-0.552,0-1-0.448-1-1v-2c0-0.552,0.448-1,1-1h9c0.552,0,1,0.448,1,1v2  C27,34.552,26.552,35,26,35z"/>
<linearGradient id="SVGID_3__49470" gradientUnits="userSpaceOnUse" x1="32" y1="10.6667" x2="32" y2="53.6253" spreadMethod="reflect">
	<stop offset="0" style="stop-color:#1A6DFF"/>
	<stop offset="1" style="stop-color:#C822FF"/>
</linearGradient>
<path style="fill:url(#SVGID_3__49470);" d="M55,15h-1v-2c0-1.103-0.897-2-2-2H36c-1.641,0-3.088,0.806-4,2.031  C31.088,11.806,29.641,11,28,11H12c-1.103,0-2,0.897-2,2v2H9c-1.654,0-3,1.346-3,3v28c0,2.757,2.243,5,5,5h15.171  c0.413,1.164,1.525,2,2.829,2h6c1.304,0,2.416-0.836,2.829-2H53c2.757,0,5-2.243,5-5V18C58,16.346,56.654,15,55,15z M12,43h16  c1.302,0,2.402,0.839,2.816,2H12V43z M36,13h16v27v1H36c-1.13,0-2.162,0.391-3,1.026V37V16C33,14.346,34.346,13,36,13z M52,43v2  H33.184c0.414-1.161,1.514-2,2.816-2H52z M12,13h16c1.654,0,3,1.346,3,3v21v5.002C30.164,41.374,29.125,41,28,41H12v-3V13z M56,46  c0,1.654-1.346,3-3,3H36v1c0,0.551-0.448,1-1,1h-6c-0.552,0-1-0.449-1-1v-1H11c-1.654,0-3-1.346-3-3V18c0-0.551,0.448-1,1-1h1v21v3  v4c0,1.103,0.897,2,2,2h40c1.103,0,2-0.897,2-2v-4v-1V17h1c0.552,0,1,0.449,1,1V46z"/>
<linearGradient id="SVGID_4__49470" gradientUnits="userSpaceOnUse" x1="42.5" y1="10.6667" x2="42.5" y2="53.6253" spreadMethod="reflect">
	<stop offset="0" style="stop-color:#1A6DFF"/>
	<stop offset="1" style="stop-color:#C822FF"/>
</linearGradient>
<rect x="37" y="19" style="fill:url(#SVGID_4__49470);" width="11" height="2"/>
<linearGradient id="SVGID_5__49470" gradientUnits="userSpaceOnUse" x1="42.5" y1="10.6667" x2="42.5" y2="53.6253" spreadMethod="reflect">
	<stop offset="0" style="stop-color:#1A6DFF"/>
	<stop offset="1" style="stop-color:#C822FF"/>
</linearGradient>
<rect x="37" y="23" style="fill:url(#SVGID_5__49470);" width="11" height="2"/>
<linearGradient id="SVGID_6__49470" gradientUnits="userSpaceOnUse" x1="40" y1="10.6667" x2="40" y2="53.6253" spreadMethod="reflect">
	<stop offset="0" style="stop-color:#1A6DFF"/>
	<stop offset="1" style="stop-color:#C822FF"/>
</linearGradient>
<rect x="37" y="27" style="fill:url(#SVGID_6__49470);" width="6" height="2"/>
<linearGradient id="SVGID_7__49470" gradientUnits="userSpaceOnUse" x1="46.5" y1="10.6667" x2="46.5" y2="53.6253" spreadMethod="reflect">
	<stop offset="0" style="stop-color:#1A6DFF"/>
	<stop offset="1" style="stop-color:#C822FF"/>
</linearGradient>
<rect x="45" y="27" style="fill:url(#SVGID_7__49470);" width="3" height="2"/>
<linearGradient id="SVGID_8__49470" gradientUnits="userSpaceOnUse" x1="21.5" y1="10.6667" x2="21.5" y2="53.6253" spreadMethod="reflect">
	<stop offset="0" style="stop-color:#1A6DFF"/>
	<stop offset="1" style="stop-color:#C822FF"/>
</linearGradient>
<rect x="16" y="19" style="fill:url(#SVGID_8__49470);" width="11" height="2"/>
<linearGradient id="SVGID_9__49470" gradientUnits="userSpaceOnUse" x1="21.5" y1="10.6667" x2="21.5" y2="53.6253" spreadMethod="reflect">
	<stop offset="0" style="stop-color:#1A6DFF"/>
	<stop offset="1" style="stop-color:#C822FF"/>
</linearGradient>
<rect x="16" y="23" style="fill:url(#SVGID_9__49470);" width="11" height="2"/>
<linearGradient id="SVGID_10__49470" gradientUnits="userSpaceOnUse" x1="19" y1="10.6667" x2="19" y2="53.6253" spreadMethod="reflect">
	<stop offset="0" style="stop-color:#1A6DFF"/>
	<stop offset="1" style="stop-color:#C822FF"/>
</linearGradient>
<rect x="16" y="27" style="fill:url(#SVGID_10__49470);" width="6" height="2"/>
<linearGradient id="SVGID_11__49470" gradientUnits="userSpaceOnUse" x1="25.5" y1="10.6667" x2="25.5" y2="53.6253" spreadMethod="reflect">
	<stop offset="0" style="stop-color:#1A6DFF"/>
	<stop offset="1" style="stop-color:#C822FF"/>
</linearGradient>
<rect x="24" y="27" style="fill:url(#SVGID_11__49470);" width="3" height="2"/>
</svg>
