<?xml version="1.0" encoding="utf-8"?>
<!-- Generator: Adobe Illustrator 19.1.1, SVG Export Plug-In . SVG Version: 6.00 Build 0)  -->
<svg version="1.1"  xmlns="http://www.w3.org/2000/svg" xmlns:xlink="http://www.w3.org/1999/xlink" x="0px" y="0px"
	 viewBox="0 0 48 48" enable-background="new 0 0 48 48" xml:space="preserve">
<g>
	<path fill="#7CB342" d="M8,36h32c2.2,0,4-1.8,4-4V16c0-2.2-1.8-4-4-4H8c-2.2,0-4,1.8-4,4v16C4,34.2,5.8,36,8,36z"/>
</g>
<path fill="#F1F8E9" d="M22,32c0,0.6,0.4,1,1,1h17c0.6,0,1-0.4,1-1V16c0-0.6-0.4-1-1-1H23c-0.6,0-1,0.4-1,1V32z"/>
</svg>
