<?xml version="1.0" encoding="iso-8859-1"?>
<!-- Generator: Adobe Illustrator 20.1.0, SVG Export Plug-In . SVG Version: 6.00 Build 0)  -->
<svg xmlns="http://www.w3.org/2000/svg" xmlns:xlink="http://www.w3.org/1999/xlink" version="1.1" id="&#1057;&#1083;&#1086;&#1081;_1" x="0px" y="0px" viewBox="0 0 64 64" style="enable-background:new 0 0 64 64;" xml:space="preserve">
<linearGradient id="SVGID_1__43963" gradientUnits="userSpaceOnUse" x1="32" y1="5.5" x2="32" y2="58.8491" spreadMethod="reflect">
	<stop offset="0" style="stop-color:#1A6DFF"/>
	<stop offset="1" style="stop-color:#C822FF"/>
</linearGradient>
<path style="fill:url(#SVGID_1__43963);" d="M53,58H11c-2.757,0-5-2.243-5-5V11c0-2.757,2.243-5,5-5h42c2.757,0,5,2.243,5,5v42  C58,55.757,55.757,58,53,58z M11,8c-1.654,0-3,1.346-3,3v42c0,1.654,1.346,3,3,3h42c1.654,0,3-1.346,3-3V11c0-1.654-1.346-3-3-3H11z  "/>
<linearGradient id="SVGID_2__43963" gradientUnits="userSpaceOnUse" x1="32" y1="5.5" x2="32" y2="58.8491" spreadMethod="reflect">
	<stop offset="0" style="stop-color:#1A6DFF"/>
	<stop offset="1" style="stop-color:#C822FF"/>
</linearGradient>
<path style="fill:url(#SVGID_2__43963);" d="M49,52H15c-1.654,0-3-1.346-3-3V15c0-1.654,1.346-3,3-3h34c1.654,0,3,1.346,3,3v34  C52,50.654,50.654,52,49,52z M15,14c-0.552,0-1,0.448-1,1v34c0,0.552,0.448,1,1,1h34c0.552,0,1-0.448,1-1V15c0-0.552-0.448-1-1-1H15  z"/>
<linearGradient id="SVGID_3__43963" gradientUnits="userSpaceOnUse" x1="22" y1="15.7083" x2="22" y2="28.2575" spreadMethod="reflect">
	<stop offset="0" style="stop-color:#6DC7FF"/>
	<stop offset="1" style="stop-color:#E6ABFF"/>
</linearGradient>
<path style="fill:url(#SVGID_3__43963);" d="M16,28V17c0-0.552,0.448-1,1-1h11L16,28z"/>
<linearGradient id="SVGID_4__43963" gradientUnits="userSpaceOnUse" x1="43" y1="5.5" x2="43" y2="58.8491" spreadMethod="reflect">
	<stop offset="0" style="stop-color:#1A6DFF"/>
	<stop offset="1" style="stop-color:#C822FF"/>
</linearGradient>
<path style="fill:url(#SVGID_4__43963);" d="M46,48h-8v-2h8v-8h2v8C48,47.103,47.103,48,46,48z"/>
</svg>
