<?xml version="1.0" encoding="iso-8859-1"?>
<!-- Generator: Adobe Illustrator 20.1.0, SVG Export Plug-In . SVG Version: 6.00 Build 0)  -->
<svg xmlns="http://www.w3.org/2000/svg" xmlns:xlink="http://www.w3.org/1999/xlink" version="1.1" id="&#1057;&#1083;&#1086;&#1081;_1" x="0px" y="0px" viewBox="0 0 64 64" style="enable-background:new 0 0 64 64;" xml:space="preserve">
<linearGradient id="SVGID_1__43671" gradientUnits="userSpaceOnUse" x1="24" y1="9.125" x2="24" y2="55.2285" spreadMethod="reflect">
	<stop offset="0" style="stop-color:#1A6DFF"/>
	<stop offset="1" style="stop-color:#C822FF"/>
</linearGradient>
<path style="fill:url(#SVGID_1__43671);" d="M40,50c0,1.654-1.346,3-3,3H11c-1.654,0-3-1.346-3-3v-3h4v-2H8v-2h4v-2H8v-2h4v-2H8v-2h4v-2H8  v-3c0-1.654,1.346-3,3-3h26c1.654,0,3,1.346,3,3v7h2v-7c0-2.757-2.243-5-5-5h-1v-1c0-1.103-0.897-2-2-2h-4c-1.103,0-2,0.897-2,2v1  h-8v-1c0-1.103-0.897-2-2-2h-1v-6c0-2.757,2.243-5,5-5h4c2.757,0,5,2.243,5,5h2c0-3.859-3.141-7-7-7h-4c-3.859,0-7,3.141-7,7v6h-1  c-1.103,0-2,0.897-2,2v1h-1c-2.757,0-5,2.243-5,5v20c0,2.757,2.243,5,5,5h26c2.757,0,5-2.243,5-5v-7h-2V50z M30,24h4v1h-4V24z   M14,24h4v1h-4V24z"/>
<linearGradient id="SVGID_2__43671" gradientUnits="userSpaceOnUse" x1="24" y1="9.125" x2="24" y2="55.2285" spreadMethod="reflect">
	<stop offset="0" style="stop-color:#1A6DFF"/>
	<stop offset="1" style="stop-color:#C822FF"/>
</linearGradient>
<path style="fill:url(#SVGID_2__43671);" d="M24,49c1.103,0,2-0.897,2-2v-2.424c1.763-0.774,3-2.531,3-4.576c0-2.757-2.243-5-5-5  s-5,2.243-5,5c0,2.045,1.237,3.802,3,4.576V47C22,48.103,22.897,49,24,49z M21,40c0-1.654,1.346-3,3-3s3,1.346,3,3s-1.346,3-3,3  S21,41.654,21,40z"/>
<linearGradient id="SVGID_3__43671" gradientUnits="userSpaceOnUse" x1="45.5" y1="9.125" x2="45.5" y2="55.2285" spreadMethod="reflect">
	<stop offset="0" style="stop-color:#1A6DFF"/>
	<stop offset="1" style="stop-color:#C822FF"/>
</linearGradient>
<path style="fill:url(#SVGID_3__43671);" d="M52,34c-2.967,0-5.431,2.167-5.91,5H35c-1.103,0-2,0.897-2,2v4h2v-4h2v2h2v-2h7.09  c0.478,2.833,2.942,5,5.91,5c3.309,0,6-2.691,6-6S55.309,34,52,34z M52,44c-2.206,0-4-1.794-4-4s1.794-4,4-4s4,1.794,4,4  S54.206,44,52,44z"/>
<linearGradient id="SVGID_4__43671" gradientUnits="userSpaceOnUse" x1="52" y1="9.125" x2="52" y2="55.2285" spreadMethod="reflect">
	<stop offset="0" style="stop-color:#1A6DFF"/>
	<stop offset="1" style="stop-color:#C822FF"/>
</linearGradient>
<circle style="fill:url(#SVGID_4__43671);" cx="52" cy="40" r="2"/>
<linearGradient id="SVGID_5__43671" gradientUnits="userSpaceOnUse" x1="24" y1="36.75" x2="24" y2="43.3333" spreadMethod="reflect">
	<stop offset="0" style="stop-color:#6DC7FF"/>
	<stop offset="1" style="stop-color:#E6ABFF"/>
</linearGradient>
<circle style="fill:url(#SVGID_5__43671);" cx="24" cy="40" r="3"/>
</svg>
